<?xml version="1.0" standalone="no"?><!DOCTYPE svg PUBLIC "-//W3C//DTD SVG 1.1//EN" "http://www.w3.org/Graphics/SVG/1.1/DTD/svg11.dtd"><svg t="1598364227241" class="icon" viewBox="0 0 1024 1024" version="1.1" xmlns="http://www.w3.org/2000/svg" p-id="4076" xmlns:xlink="http://www.w3.org/1999/xlink" width="200" height="200"><defs><style type="text/css"></style></defs><path d="M764 215a44 44 0 0 1 44 44v505a44 44 0 0 1-44 44H260a44 44 0 0 1-44-44V259a44 44 0 0 1 44-44h504m0-20H260a64 64 0 0 0-64 64v505a64 64 0 0 0 64 64h504a64 64 0 0 0 64-64V259a64 64 0 0 0-64-64zM136 412a20 20 0 0 1 20 20v160a20 20 0 0 1-40 0V432a20 20 0 0 1 20-20m0-20a40.12 40.12 0 0 0-40 40v160a40 40 0 0 0 80 0V432a40.12 40.12 0 0 0-40-40zM888 412a20 20 0 0 1 20 20v160a20 20 0 0 1-40 0V432a20 20 0 0 1 20-20m0-20a40.12 40.12 0 0 0-40 40v160a40 40 0 0 0 80 0V432a40.12 40.12 0 0 0-40-40z" fill="#1296db" p-id="4077"></path><path d="M366 342a70 70 0 1 1-70 70 70.08 70.08 0 0 1 70-70m0-20a90 90 0 1 0 90 90 90 90 0 0 0-90-90z" fill="#1296db" p-id="4078"></path><path d="M366 382a30 30 0 1 1-30 30 30 30 0 0 1 30-30m0-20a50 50 0 1 0 50 50 50 50 0 0 0-50-50zM658 342a70 70 0 1 1-70 70 70.08 70.08 0 0 1 70-70m0-20a90 90 0 1 0 90 90 90 90 0 0 0-90-90z" fill="#1296db" p-id="4079"></path><path d="M658 382a30 30 0 1 1-30 30 30 30 0 0 1 30-30m0-20a50 50 0 1 0 50 50 50 50 0 0 0-50-50zM716 602a12 12 0 0 1 12 12v82a12 12 0 0 1-12 12H308a12 12 0 0 1-12-12v-82a12 12 0 0 1 12-12h408m0-20H308a32 32 0 0 0-32 32v82a32 32 0 0 0 32 32h408a32 32 0 0 0 32-32v-82a32 32 0 0 0-32-32z" fill="#1296db" p-id="4080"></path><path d="M352 583a10 10 0 0 0-10 10v124a10 10 0 0 0 20 0V593a10 10 0 0 0-10-10zM432 583a10 10 0 0 0-10 10v124a10 10 0 0 0 20 0V593a10 10 0 0 0-10-10zM512 583a10 10 0 0 0-10 10v124a10 10 0 0 0 20 0V593a10 10 0 0 0-10-10zM592 583a10 10 0 0 0-10 10v124a10 10 0 0 0 20 0V593a10 10 0 0 0-10-10zM672 583a10 10 0 0 0-10 10v124a10 10 0 0 0 20 0V593a10 10 0 0 0-10-10zM714 135a12 12 0 0 1 12 12v48H298v-48a12 12 0 0 1 12-12h404m0-20H310a32 32 0 0 0-32 32v68h468v-68a32 32 0 0 0-32-32zM726 828v34a12 12 0 0 1-12 12H310a12 12 0 0 1-12-12v-34h428m20-20H278v54a32 32 0 0 0 32 32h404a32 32 0 0 0 32-32v-54z" fill="#1296db" p-id="4081"></path></svg>