<?xml version="1.0" standalone="no"?><!DOCTYPE svg PUBLIC "-//W3C//DTD SVG 1.1//EN" "http://www.w3.org/Graphics/SVG/1.1/DTD/svg11.dtd"><svg t="1598364132227" class="icon" viewBox="0 0 1024 1024" version="1.1" xmlns="http://www.w3.org/2000/svg" p-id="3762" width="200" height="200" xmlns:xlink="http://www.w3.org/1999/xlink"><defs><style type="text/css"></style></defs><path d="M650.24 647.168c-22.528 0-40.96-18.432-40.96-40.96v-40.96c0-22.528 18.432-40.96 40.96-40.96s40.96 18.432 40.96 40.96v40.96c0 22.528-18.432 40.96-40.96 40.96zM373.76 647.168c-22.528 0-40.96-18.432-40.96-40.96v-40.96c0-22.528 18.432-40.96 40.96-40.96s40.96 18.432 40.96 40.96v40.96c0 22.528-18.432 40.96-40.96 40.96z" fill="#1296db" p-id="3763"></path><path d="M776.192 990.208H247.808c-90.112 0-163.84-73.728-163.84-163.84V663.552C83.968 428.032 275.456 235.52 512 235.52s428.032 192.512 428.032 428.032v161.792c0 91.136-72.704 164.864-163.84 164.864zM512 317.44c-191.488 0-346.112 155.648-346.112 346.112v161.792c0 45.056 36.864 81.92 81.92 81.92h529.408c45.056 0 81.92-36.864 81.92-81.92V663.552C858.112 473.088 703.488 317.44 512 317.44z" fill="#1296db" p-id="3764"></path><path d="M316.416 354.304c-19.456 11.264-45.056 5.12-56.32-14.336l-92.16-157.696c-11.264-19.456-5.12-45.056 14.336-56.32 19.456-11.264 45.056-5.12 56.32 14.336l92.16 157.696c11.264 19.456 5.12 45.056-14.336 56.32z" fill="#1296db" p-id="3765"></path><path d="M129.910107 197.830862a81.92 81.92 0 1 0 141.442855-82.688962 81.92 81.92 0 1 0-141.442855 82.688962Z" fill="#1296db" p-id="3766"></path><path d="M718.848 354.304c19.456 11.264 45.056 5.12 56.32-14.336l92.16-157.696c11.264-19.456 5.12-45.056-14.336-56.32-19.456-11.264-45.056-5.12-56.32 14.336l-92.16 157.696c-12.288 19.456-5.12 45.056 14.336 56.32z" fill="#1296db" p-id="3767"></path><path d="M792.926561 226.971706a81.92 81.92 0 1 0 82.688963-141.442854 81.92 81.92 0 1 0-82.688963 141.442854Z" fill="#1296db" p-id="3768"></path><path d="M593.92 844.8H430.08c-22.528 0-40.96-18.432-40.96-40.96s18.432-40.96 40.96-40.96h163.84c22.528 0 40.96 18.432 40.96 40.96s-18.432 40.96-40.96 40.96z" fill="#1296db" p-id="3769"></path><path d="M562.176 190.464c-11.264 0-22.528-5.12-30.72-13.312l-31.744-35.84-22.528 31.744c-7.168 11.264-20.48 17.408-33.792 17.408h-71.68c-22.528 0-40.96-18.432-40.96-40.96s18.432-40.96 40.96-40.96h51.2L462.848 51.2c7.168-10.24 18.432-16.384 30.72-17.408 12.288-1.024 24.576 4.096 32.768 13.312l53.248 60.416 81.92-1.024c22.528 0 40.96 18.432 40.96 40.96s-18.432 40.96-40.96 40.96l-99.328 2.048z" fill="#1296db" p-id="3770"></path></svg>